<?xml version="1.0" standalone="no"?>
<!DOCTYPE svg PUBLIC "-//W3C//DTD SVG 20010904//EN"
 "http://www.w3.org/TR/2001/REC-SVG-20010904/DTD/svg10.dtd">
<svg version="1.0" xmlns="http://www.w3.org/2000/svg"
 width="750.000000pt" height="750.000000pt" viewBox="0 0 750.000000 750.000000"
 preserveAspectRatio="xMidYMid meet">
<metadata>
Created by potrace 1.11, written by Peter Selinger 2001-2013
</metadata>
<g transform="translate(0.000000,750.000000) scale(0.100000,-0.100000)"
fill="#000000" stroke="none">
<path d="M3549 6995 c-2 -2 -38 -6 -79 -9 -42 -4 -87 -8 -100 -11 -30 -5 -134
-23 -170 -29 -14 -2 -54 -12 -90 -21 -36 -9 -76 -19 -90 -21 -14 -3 -34 -8
-45 -13 -11 -5 -58 -21 -105 -36 -126 -40 -406 -161 -430 -185 -3 -3 -14 -10
-25 -16 -81 -44 -125 -70 -165 -97 -82 -55 -225 -161 -241 -179 -9 -10 -19
-18 -23 -18 -13 0 -188 -170 -281 -272 -125 -138 -178 -209 -321 -433 -30 -49
-154 -287 -154 -298 0 -3 -8 -22 -17 -43 -9 -22 -17 -41 -18 -44 0 -3 -3 -9
-6 -15 -6 -10 -33 -85 -34 -95 0 -3 -4 -11 -8 -17 -5 -7 -10 -21 -12 -30 -2
-10 -16 -58 -30 -108 -26 -92 -52 -198 -60 -248 -2 -15 -7 -47 -10 -70 -4 -23
-8 -56 -11 -73 -13 -84 -28 -328 -24 -384 1 -14 1 -32 1 -40 -3 -46 0 -114 5
-121 3 -5 0 -9 -7 -9 -9 0 -9 -3 0 -14 7 -9 8 -17 3 -20 -6 -3 -7 -20 -3 -39
5 -18 5 -41 1 -51 -3 -10 -3 -40 0 -67 4 -29 2 -49 -3 -49 -5 0 -4 -6 2 -14 7
-9 8 -17 3 -20 -6 -3 -7 -20 -3 -39 5 -18 5 -41 1 -51 -3 -10 -3 -40 0 -67 4
-29 2 -49 -3 -49 -5 0 -4 -6 2 -14 7 -9 8 -17 3 -20 -6 -3 -7 -20 -3 -39 5
-18 5 -41 1 -51 -3 -10 -3 -40 0 -66 3 -26 3 -56 -1 -66 -3 -11 -3 -29 2 -41
6 -15 5 -23 -2 -23 -8 0 -8 -4 0 -14 7 -9 8 -17 3 -20 -6 -3 -7 -20 -2 -40 4
-19 5 -37 2 -40 -3 -3 -4 -30 -3 -58 1 -29 3 -74 4 -101 1 -26 -2 -47 -7 -47
-5 0 -3 -6 3 -14 7 -9 8 -17 3 -20 -6 -3 -7 -20 -3 -39 5 -18 5 -41 1 -51 -3
-10 -3 -40 0 -66 3 -26 3 -56 -1 -66 -3 -11 -3 -29 2 -41 6 -15 5 -23 -2 -23
-8 0 -8 -4 0 -14 7 -9 8 -17 3 -20 -6 -3 -7 -20 -3 -39 5 -18 5 -41 1 -51 -3
-10 -3 -41 0 -69 4 -28 4 -65 0 -82 -4 -17 -4 -40 0 -50 4 -11 4 -28 1 -39 -4
-10 -4 -40 -1 -67 4 -29 2 -49 -3 -49 -5 0 -4 -6 2 -14 7 -9 8 -17 3 -20 -6
-3 -7 -20 -3 -39 5 -18 5 -41 1 -51 -3 -10 -3 -40 0 -67 4 -29 2 -49 -3 -49
-5 0 -4 -6 2 -14 7 -9 8 -17 3 -20 -6 -3 -7 -20 -2 -39 4 -18 4 -42 0 -52 -3
-11 -5 -31 -3 -45 1 -14 3 -50 4 -80 6 -140 101 -239 237 -246 106 -5 191 45
236 140 23 49 24 62 26 251 0 109 3 201 5 204 3 2 1 9 -3 15 -4 6 -5 155 -2
330 l5 320 25 -37 c14 -20 28 -37 33 -37 4 0 7 -6 7 -12 0 -13 11 -26 135
-163 118 -131 190 -200 320 -305 44 -36 82 -68 83 -72 2 -5 9 -8 16 -8 7 0 21
-9 31 -20 10 -11 24 -20 32 -20 7 0 13 -4 13 -8 0 -19 391 -238 402 -226 5 4
23 9 78 20 14 3 54 14 90 24 36 10 76 21 90 24 14 3 111 28 215 56 105 27 197
52 205 54 8 1 22 6 30 9 8 4 26 9 40 11 46 9 199 50 197 53 -2 1 -21 5 -42 7
-230 29 -423 79 -617 157 -58 24 -302 150 -319 165 -8 8 -21 14 -27 14 -7 0
-12 5 -12 10 0 6 -6 10 -13 10 -7 0 -22 8 -33 17 -10 10 -38 31 -60 46 -23 15
-56 40 -73 55 -17 15 -45 38 -62 52 -46 36 -208 199 -249 249 -19 24 -40 48
-45 54 -28 31 -105 138 -131 181 -16 26 -37 60 -46 74 -32 50 -116 217 -142
282 -15 36 -31 73 -36 82 -6 10 -10 27 -10 37 0 11 -4 22 -9 25 -5 3 -11 16
-14 28 -2 13 -16 66 -30 119 -15 53 -29 112 -32 130 -3 19 -8 41 -10 49 -2 8
-6 35 -9 60 -3 25 -8 56 -11 70 -3 14 -8 82 -10 153 -2 70 -6 131 -9 136 -3 4
-3 11 1 14 3 4 7 44 9 89 3 83 6 118 18 213 8 55 14 90 16 90 1 0 3 9 5 20 9
60 18 101 23 110 4 6 8 19 9 30 5 29 58 193 79 240 10 22 19 45 20 52 4 21 78
167 128 253 60 102 136 214 181 266 6 7 24 29 40 50 30 39 226 237 261 264 10
8 45 36 77 62 233 189 550 342 867 417 187 44 281 55 510 55 187 1 289 -7 405
-28 17 -4 41 -8 55 -11 50 -9 125 -27 140 -32 8 -3 20 -7 27 -9 34 -7 209 -68
218 -75 5 -5 15 -9 22 -9 17 0 214 -97 294 -145 70 -42 228 -151 244 -169 6
-6 33 -29 60 -51 102 -81 237 -227 368 -395 84 -107 198 -315 268 -487 5 -13
13 -33 19 -45 5 -13 19 -54 30 -93 12 -38 26 -81 30 -95 5 -14 16 -61 25 -105
9 -44 18 -89 21 -100 4 -22 11 -69 20 -135 3 -25 8 -90 10 -145 3 -55 5 -104
5 -110 1 -17 -10 -207 -15 -246 -5 -49 -18 -140 -21 -159 -20 -96 -38 -176
-54 -230 -50 -175 -154 -407 -248 -553 -23 -37 -43 -72 -43 -76 0 -5 -3 -11
-7 -13 -5 -1 -28 -30 -52 -63 -126 -171 -318 -363 -471 -471 -30 -21 -57 -41
-60 -44 -18 -21 -188 -119 -300 -173 -105 -51 -358 -150 -373 -146 -1 1 -22
-4 -47 -11 -25 -7 -56 -14 -70 -17 -14 -2 -59 -13 -100 -24 -41 -11 -82 -21
-90 -23 -54 -14 -284 -74 -445 -116 -104 -28 -219 -57 -255 -66 -36 -9 -72
-18 -80 -22 -8 -3 -17 -6 -20 -7 -6 -2 -83 -19 -90 -20 -3 0 -11 -4 -17 -8 -7
-5 -13 -6 -13 -3 0 3 -18 -1 -40 -9 -22 -8 -42 -14 -45 -15 -3 0 -6 0 -7 -1
-2 0 -12 -2 -23 -4 -11 -2 -54 -13 -95 -25 -90 -25 -867 -229 -895 -235 -39
-9 -61 -15 -175 -46 -63 -17 -128 -33 -145 -36 -16 -3 -37 -8 -45 -13 -13 -7
-88 -26 -136 -35 -11 -2 -19 -4 -19 -5 0 -1 -8 -3 -17 -6 -25 -6 -37 -9 -88
-23 -25 -7 -56 -15 -70 -17 -14 -3 -32 -7 -40 -10 -20 -8 -200 -55 -225 -60
-11 -2 -45 -11 -75 -19 -30 -9 -116 -32 -190 -51 -74 -20 -178 -47 -230 -60
-52 -14 -102 -27 -110 -29 -8 -2 -42 -11 -75 -20 -33 -9 -67 -18 -75 -20 -187
-42 -250 -83 -295 -191 -18 -44 -18 -113 1 -161 7 -17 10 -33 8 -36 -9 -9 88
-99 124 -114 83 -36 98 -34 507 76 255 68 348 91 350 89 1 -2 7 -18 15 -36 17
-43 83 -110 128 -129 95 -39 201 -20 273 49 49 48 69 95 77 182 l7 69 80 21
c44 12 82 22 85 23 3 1 19 4 35 8 17 4 37 9 45 11 8 3 15 5 15 5 0 -1 83 21
130 34 108 30 114 29 106 -18 -3 -19 -1 -165 2 -192 11 -81 79 -167 156 -197
57 -23 155 -18 203 10 55 31 77 53 106 102 26 44 27 50 32 249 l5 205 65 17
c36 9 145 38 244 63 98 26 180 46 182 44 2 -2 3 -92 3 -199 0 -253 -1 -236 6
-295 11 -89 89 -182 171 -202 129 -30 245 21 299 133 24 50 24 53 25 370 0
176 4 323 8 327 7 7 149 47 187 53 11 2 20 4 20 5 0 1 7 3 15 5 46 10 255 67
262 71 5 3 19 7 31 9 12 1 67 15 122 29 55 15 111 30 125 32 14 3 57 14 95 24
39 10 81 21 95 23 39 8 188 56 270 88 41 16 81 29 88 29 6 0 12 5 12 10 0 6 7
10 15 10 24 0 210 94 330 168 39 24 79 48 90 55 10 7 25 17 31 22 7 6 29 21
49 35 190 131 396 328 570 545 65 82 87 103 83 83 -3 -16 -2 -28 1 -28 4 0 4
-27 1 -60 -3 -33 -2 -69 2 -80 5 -15 4 -19 -4 -14 -6 4 -8 3 -5 -3 6 -9 8 -65
6 -160 -1 -28 2 -56 6 -62 3 -6 1 -11 -5 -11 -6 0 -8 -5 -5 -10 4 -6 6 -34 6
-63 -1 -29 -1 -63 0 -77 0 -14 0 -32 0 -40 -4 -63 -2 -110 4 -119 3 -6 1 -11
-5 -11 -6 0 -8 -5 -5 -10 6 -10 7 -46 4 -145 -3 -99 11 -179 39 -224 49 -81
130 -122 226 -117 67 4 122 29 168 78 66 70 70 103 67 493 0 17 0 442 0 485 0
8 0 116 0 240 0 124 0 232 0 240 0 8 0 116 0 240 0 124 0 232 0 240 0 8 0 116
0 240 0 124 0 232 0 240 3 281 -3 534 -15 640 -3 30 -7 70 -9 88 -2 19 -11 71
-20 115 -22 117 -22 118 -35 167 -7 25 -13 50 -14 55 -2 6 -8 30 -15 55 -7 25
-15 52 -17 60 -1 8 -16 51 -32 95 -81 219 -170 399 -291 579 -36 55 -70 107
-76 115 -5 9 -12 18 -15 21 -9 9 -55 66 -75 94 -74 102 -319 342 -460 449 -87
65 -250 177 -261 177 -3 0 -18 9 -33 19 -25 18 -208 112 -281 144 -71 31 -176
70 -255 94 -44 13 -87 27 -95 30 -20 8 -17 7 -85 23 -33 7 -64 15 -70 16 -25
7 -176 33 -225 39 -30 4 -66 9 -80 12 -31 5 -486 13 -491 8z"/>
<path d="M4865 1599 c-80 -40 -380 -134 -494 -156 -14 -2 -74 -17 -135 -34
-61 -16 -120 -32 -131 -34 -11 -3 -40 -11 -65 -18 l-45 -13 0 -242 c0 -133 4
-242 8 -242 5 0 5 -5 1 -12 -19 -30 1 -171 31 -224 44 -74 113 -115 202 -120
100 -5 181 39 231 126 l27 45 3 268 c2 147 6 267 10 267 4 0 50 -12 102 -26
52 -14 111 -29 130 -34 104 -25 246 -64 252 -69 4 -3 8 -89 8 -189 2 -209 11
-249 68 -310 51 -54 95 -74 169 -78 79 -4 133 17 189 73 58 56 74 114 74 260
0 62 2 113 4 113 2 0 81 -21 175 -46 94 -25 179 -47 189 -49 9 -1 43 -10 75
-20 l57 -16 1 -47 c1 -75 8 -104 36 -147 33 -52 76 -89 125 -108 47 -19 153
-17 188 4 60 34 100 73 121 117 12 26 23 48 24 49 1 2 17 -2 36 -8 19 -5 45
-12 59 -15 14 -3 43 -10 65 -16 53 -15 56 -16 83 -22 12 -3 30 -8 40 -10 9 -3
51 -14 92 -25 41 -12 95 -26 120 -32 59 -14 62 -15 150 -39 93 -26 161 -24
220 7 94 49 134 115 134 223 0 76 -16 121 -62 173 -36 41 -126 78 -249 103
-12 2 -34 9 -48 14 -14 5 -25 7 -25 5 0 -2 -12 0 -27 6 -16 6 -35 12 -43 14
-16 4 -58 15 -323 85 -87 23 -166 43 -175 45 -10 3 -35 9 -57 15 -22 6 -47 12
-55 14 -8 2 -127 34 -265 71 -137 36 -259 68 -270 71 -11 2 -105 27 -210 55
-104 28 -197 52 -205 53 -29 6 -75 18 -100 27 -14 4 -36 11 -50 13 -14 3 -67
16 -117 30 -51 14 -103 28 -115 30 -13 2 -57 14 -98 25 -89 25 -85 25 -135 0z"/>
</g>
</svg>
